<svg xmlns="http://www.w3.org/2000/svg" viewBox="0 0 640 189.82"><title>Delta Smart Logo</title><g id="Camada_2" data-name="Camada 2"><g id="Layer_1" data-name="Layer 1"><g id="Delta_Smart_Logo" data-name="Delta Smart Logo"><path d="M308.65,31.46V57.12c0,19.38-18.51,27.77-33.19,27.77H247.82c-2.84,0-3.58-1.36-3.58-3.58v-74c0-2.22.74-3.58,3.58-3.58h27.64C290.14,3.69,308.65,12.21,308.65,31.46Zm-19.37,1.72c0-7.77-5.68-12.33-13.82-12.33H263.61V67.74h11.85c8.14,0,13.82-4.45,13.82-12.34Z"/><path d="M386.88,71.19V81.31c0,2.22-.74,3.58-3.58,3.58H328c-2.84,0-3.58-1.36-3.58-3.58v-74c0-2.22.74-3.58,3.58-3.58H381.2c2.84,0,3.58,1.36,3.58,3.58V17.51c0,2.22-.74,3.58-3.58,3.58H343.94V34.54H377c2.84,0,3.58,1.36,3.58,3.58v9.63c0,2.22-.74,3.57-3.58,3.57H343.94V67.61H383.3C386.14,67.61,386.88,69,386.88,71.19Z"/><path d="M460.29,71.19V81.31c0,2.22-.74,3.58-3.58,3.58H405.38c-2.84,0-3.58-1.36-3.58-3.58v-74c0-2.84,1.36-3.58,3.58-3.58h12.21c2.23,0,3.58.74,3.58,3.58V67.61h35.54C459.55,67.61,460.29,69,460.29,71.19Z"/><path d="M524.45,7.27V17.51c0,2.22-.74,3.58-3.58,3.58H502V81.31c0,2.84-1.36,3.58-3.58,3.58H486.2c-2.23,0-3.58-.74-3.58-3.58V21.09h-19c-2.83,0-3.57-1.36-3.57-3.58V7.27c0-2.22.74-3.58,3.57-3.58h57.26C523.71,3.69,524.45,5.05,524.45,7.27Z"/><path d="M596.87,84.89h-13c-2.72,0-3.7-.74-4.69-3.7l-3.46-9.75H545.54l-3.45,9.75c-1,3-2,3.7-4.69,3.7h-13c-2.71,0-2.71-2-2.1-3.46l27.4-73.91c1-2.59,2.34-3.83,5.06-3.83h11.84c2.72,0,4,1.24,5.06,3.83L599,81.43C599.59,82.91,599.59,84.89,596.87,84.89ZM570,54.16l-9.25-27.27-9.25,27.27Z"/><path d="M309.46,160.22c0,17.52-13.82,25.91-32.83,25.91-15.42,0-33.19-8.88-33.19-26.16,0-2.84.74-3.45,3.58-3.45h12c2.84,0,4.19.37,4.44,3.45a8.47,8.47,0,0,0,2.34,5.06c2.47,3,7.53,4.07,12.1,4.07,6.66,0,12.09-1.48,12.09-8.39s-11-7-21.47-10.36c-12.46-3.95-23.94-8.89-23.94-24.56,0-16,14.56-23.94,30-24.55,15.67,0,32.82,7.15,32.82,23.44,0,3-.74,3.46-3.58,3.46H291.69c-2.35,0-2.72-1.73-3.33-3.34a10.19,10.19,0,0,0-2.6-3.7c-2.34-2.22-6.78-3.33-10.48-3.33-4.08,0-10.86,1.6-10.86,7.16,0,7.52,18.14,10.24,23.07,12.21C296.38,139.86,309.46,143.44,309.46,160.22Z"/><path d="M400.27,106.54V180.7c0,2.84-1.36,3.58-3.58,3.58H384.84c-2.22,0-3.57-.74-3.57-3.58V138.87l-12.34,21.6c-.62,1-1.73,2.59-3.58,2.59h-6.17c-1.85,0-2.84-1.61-3.46-2.59l-12.46-21.6V180.7c0,2.84-1.36,3.58-3.58,3.58H327.46c-2.22,0-3.57-.74-3.57-3.58V106.54c0-2.22.74-3.58,3.57-3.58h12.22c4.2,0,4.69,2.72,5.68,4.2l16.9,30.35,17-30.35c.86-1.48,1.48-4.2,5.55-4.2h11.85C399.53,103,400.27,104.32,400.27,106.54Z"/><path d="M486.27,184.28h-13c-2.72,0-3.7-.74-4.69-3.7l-3.45-9.75H434.93l-3.45,9.75c-1,3-2,3.7-4.69,3.7h-13c-2.71,0-2.71-2-2.1-3.45l27.4-73.92c1-2.59,2.34-3.82,5.06-3.82H456c2.72,0,4,1.23,5.06,3.82l27.27,73.92C489,182.31,489,184.28,486.27,184.28Zm-26.9-30.73-9.26-27.27-9.25,27.27Z"/><path d="M564,184.28H549.44c-3,0-4.45-1.11-6.17-3.7l-13.33-19.87c-1.11-1.48-1.36-2.84-1.36-6.29v-9.87c0-2.22.74-3.58,3.58-3.58h2.47c6,0,11.72-4.2,11.72-10,0-6.41-4.93-10.48-11.35-10.48H518.59V180.7c0,2.84-1.36,3.58-3.58,3.58H502.79c-2.22,0-3.45-.74-3.45-3.58V106.79c0-2.22.62-3.58,3.45-3.58h31.1c13.45,0,19.37,2.71,24.55,7.9,4.57,4.44,7.16,11.47,7.16,19.37A26.58,26.58,0,0,1,548.45,155l17.4,25.29C567,182.06,566.34,184.28,564,184.28Z"/><path d="M640,106.66v10.25c0,2.22-.74,3.58-3.58,3.58H617.54V180.7c0,2.84-1.35,3.58-3.58,3.58H601.75c-2.22,0-3.58-.74-3.58-3.58V120.49h-19c-2.84,0-3.58-1.36-3.58-3.58V106.66c0-2.22.74-3.57,3.58-3.57h57.25C639.26,103.09,640,104.44,640,106.66Z"/><path d="M194.74,189.59l-86.63.23V168.23h.08c.39,0,3.45-.7,3.45-1.57v-2.59a.53.53,0,0,0,0-.13h13.7a5.68,5.68,0,0,0,5.67-5.65l.31-88.65A5.67,5.67,0,0,0,125.63,64h-3.92l3.52,9.41,1.08,2.89-2.81-.1L115,75.86l5.18,3.84,1,.75-.61,1L107.87,102.2l9.8-21-8.2-5.84-3.53-2.52,4.39-.14,9.73-.34L114.65,64h-27A5.68,5.68,0,0,0,82,69.64l.32,88.65A5.67,5.67,0,0,0,88,163.94h13.7a.27.27,0,0,0,0,.13v2.59c0,.87,3.07,1.57,3.46,1.57l.06,21.59-86.62-.23a18.49,18.49,0,0,1-16-27.74L90.61,9.25a18.5,18.5,0,0,1,32,0l88.11,152.6A18.49,18.49,0,0,1,194.74,189.59Z"/></g></g></g></svg>